<svg version="1.0" xmlns="http://www.w3.org/2000/svg"
 width="250.000000pt" height="250.000000pt" viewBox="0 0 250.000000 250.000000"
 preserveAspectRatio="xMidYMid meet">
<g transform="translate(0.000000,250.000000) scale(0.100000,-0.100000)"
fill="#000000" stroke="none">
<path d="M1119 2496 c-2 -2 -28 -7 -58 -10 -128 -15 -318 -83 -446 -160 -194
-117 -363 -294 -468 -494 -43 -83 -99 -232 -111 -297 -3 -16 -8 -43 -12 -60
-26 -140 -24 -340 7 -473 6 -26 13 -57 15 -70 10 -49 65 -187 108 -268 144
-271 389 -482 684 -588 189 -68 439 -88 636 -50 12 2 35 6 51 10 52 10 187 56
253 85 254 116 480 342 602 602 78 167 111 312 115 507 3 147 -5 224 -39 354
-33 126 -123 310 -203 416 -74 97 -201 219 -289 276 -32 22 -61 42 -64 45 -3
4 -48 27 -100 52 -186 88 -344 124 -556 125 -67 0 -124 -1 -125 -2z m517 -352
c191 -76 385 -257 483 -451 72 -143 111 -321 104 -472 -3 -69 -5 -92 -12 -131
-1 -3 -17 23 -35 58 -71 131 -180 251 -314 345 l-75 54 1 94 c2 281 -104 457
-279 461 -219 6 -293 -293 -97 -393 21 -10 48 -19 62 -19 14 0 28 -5 32 -11
12 -20 -10 -28 -51 -19 -114 24 -265 28 -414 8 -19 -2 -30 3 -26 15 2 6 7 25
9 41 12 68 60 188 99 247 24 35 68 84 99 109 122 98 271 121 414 64z m-736 -6
c-93 -139 -163 -366 -163 -524 0 -40 -2 -42 -61 -74 -173 -94 -270 -191 -305
-306 -28 -89 -3 -185 61 -239 117 -98 288 -51 333 91 18 56 17 83 -6 163 -2 8
3 16 11 18 10 2 21 -14 34 -54 28 -86 87 -198 151 -287 52 -73 55 -80 38 -90
-37 -22 -140 -47 -220 -52 -208 -15 -369 73 -452 246 -35 75 -36 76 -36 210 0
156 7 207 41 309 67 201 181 359 349 484 61 46 214 132 243 136 2 1 -6 -14
-18 -31z m507 -748 c29 -6 55 -15 57 -19 7 -10 -55 -151 -94 -215 -17 -28 -51
-74 -76 -101 l-44 -50 -31 35 c-71 80 -153 227 -173 311 -7 32 -1 35 81 45 32
3 59 7 61 9 7 6 171 -6 219 -15z m384 -192 c72 -69 129 -148 164 -228 23 -52
29 -82 32 -151 3 -96 -11 -154 -56 -232 -39 -69 -80 -106 -179 -166 -290 -174
-637 -186 -937 -34 -63 32 -185 111 -185 119 0 2 29 3 64 1 142 -8 329 33 467
102 l75 37 70 -43 c167 -103 337 -138 446 -91 175 75 184 312 14 389 -81 37
-181 16 -243 -51 -17 -18 -36 -30 -42 -26 -7 5 9 31 43 74 63 79 130 190 171
285 16 37 32 67 35 67 4 0 31 -24 61 -52z"/>
</g>
</svg>
